# xmcd
#
# Track frame offsets:
#	150
#	13899
#	28153
#	42531
#	58721
#	73671
#	90142
#	106958
#	123054
#	140893
#	157146
#	175074
#	191984
#	208344
#	223599
#	245097
#	263026
#	281996
#	297145
#	313638
#
# Disc length: 4396 seconds
#
# Revision: 1
# Processed by: cddbd v1.5.2PL0 Copyright (c) Steve Scherf et al.
# Submitted via: audiograbber 1.83.01
#
DISCID=40112a14
DTITLE=Alabama - Down Home CD1
DYEAR=2013
DGENRE=
TTITLE0=Tennessee River
TTITLE1=Why Lady Why
TTITLE2=Old Flame
TTITLE3=Feels So Right
TTITLE4=Love In The First Degree
TTITLE5=Mountain Music
TTITLE6=Take Me Down
TTITLE7=Close Enoug To Perfect
TTITLE8=Dixieland Delight
TTITLE9=The Closer You Get
TTITLE10=Lady Down On Love
TTITLE11=Roll On
TTITLE12=When We Make Love
TTITLE13=If You're Gonna Play In Texas
TTITLE14=I'm Not That Way Anymore
TTITLE15=Fire In The Night
TTITLE16=There's No Way
TTITLE17=Forty Hour Week
TTITLE18=Can't Keep A Good Man Down
TTITLE19=She And I
EXTD=
EXTT0=
EXTT1=
EXTT2=
EXTT3=
EXTT4=
EXTT5=
EXTT6=
EXTT7=
EXTT8=
EXTT9=
EXTT10=
EXTT11=
EXTT12=
EXTT13=
EXTT14=
EXTT15=
EXTT16=
EXTT17=
EXTT18=
EXTT19=
PLAYORDER=
